# xmcd
#
# Track frame offsets:
#	150
#	17217
#	31134
#	48222
#	59415
#	88250
#	95807
#	112299
#	126861
#	141602
#	151874
#	163695
#	174239
#	187573
#
# Disc length: 2625 seconds
#
# Revision: 4
# Processed by: cddbd v1.5.2PL0 Copyright (c) Steve Scherf et al.
# Submitted via: EasyCDDAExtractor 2010.6.0.0
#
DISCID=bc0a3f0e
DTITLE=JOTA JOTINHA JOTÃO - CORNO POBRE CORNO RICO
DYEAR=2005
DGENRE=EMBOLADA
TTITLE0=CORNO POBRE CORNO RICO (BY DJ GILMAR SINISTRO)
TTITLE1=BANDIDA (BY DJ GILMAR SINISTRO)
TTITLE2=O LADRÃO BESTA E O LADRÃO SABIDO (BY DJ GILMAR SINISTRO)
TTITLE3=O BANHO DE MAR (BY DJ GILMAR SINISTRO)
TTITLE4=O CORNO PERGUNTADO (BY DJ GILMAR SINISTRO)
TTITLE5=A GORDA E A MAGRA (BY DJ GILMAR SINISTRO)
TTITLE6=MATUTO NO FORRÓ (BY DJ GILMAR SINISTRO)
TTITLE7=DO RICO PARA O POBRE (BY DJ GILMAR SINISTRO)
TTITLE8=AS MODAS DE HOJE EM DIA (BY DJ GILMAR SINISTRO)
TTITLE9=NOS QUARTO DA MINHA TIA (BY DJ GILMAR SINISTRO)
TTITLE10=DESAFIO EM CARREIRÃO (BY DJ GILMAR SINISTRO)
TTITLE11=MELÔ DO CHIFRUDO (BY DJ GILMAR SINISTRO)
TTITLE12=FLAMENGO E CORINTHIANS (BY DJ GILMAR SINISTRO)
TTITLE13=ESTE BOI É CORNO (BY DJ GILMAR SINISTRO)
EXTD=
EXTT0=
EXTT1=
EXTT2=
EXTT3=
EXTT4=
EXTT5=
EXTT6=
EXTT7=
EXTT8=
EXTT9=
EXTT10=
EXTT11=
EXTT12=
EXTT13=
PLAYORDER=
